#!OML:ASF H:\Terrain\Patient Classification 1\PLAYGROUND\JustinFriday\JustinFriday.ASF
:FULLY-SPECIFIED
:DEGREES
1413
root -12.6799 17.5806 14.3961 -4.32369 32.674 -5.21944
lowerback 11.7162 4.85518 2.48434
upperback 3.25946 6.80819 1.26604
thorax -2.98802 3.38842 -1.01851
lowerneck -6.05766 -8.9893 -9.21344
upperneck 6.45301 -12.7147 17.0662
head 4.65224 -5.77747 5.91055
rclavicle 1.62109e-013 -5.76476e-015
rhumerus -56.4122 -29.2745 -58.9359
rradius 14.8457
rwrist -341.282
rhand 8.77677 -26.1156
rfingers 7.12502
rthumb 33.9652 -52.9071
lclavicle 1.62109e-013 -5.76476e-015
lhumerus -70.5464 30.9102 63.3263
lradius 22.0991
lwrist -5.04942
lhand 13.9489 0.0282132
lfingers 7.12502
lthumb 38.8614 25.5878
rfemur -0.600576 5.16336 21.3694
rtibia 50.5654
rfoot 8.12126 2.31705
rtoes -1.65232
lfemur -8.93581 -1.66614 -12.3696
ltibia 29.781
lfoot -17.1503 -3.07381
ltoes -1.75573
1414
root -12.6086 17.5996 14.4564 -3.3051 32.49 -3.57679
lowerback 11.0144 4.72478 0.870008
upperback 3.76896 6.42445 1.00847
thorax -2.23392 3.21451 -0.257356
lowerneck -6.86038 -8.78586 -9.14407
upperneck 7.19172 -12.4792 16.8848
head 4.96291 -5.60308 5.83037
rclavicle 9.67957e-014 -2.23633e-014
rhumerus -55.8968 -29.3161 -59.187
rradius 15.1188
rwrist -343.488
rhand 9.66633 -26.1494
rfingers 7.12502
rthumb 34.8098 -52.7496
lclavicle 9.67957e-014 -2.23633e-014
lhumerus -70.0543 31.3505 64.2326
lradius 22.2117
lwrist -4.36902
lhand 13.597 2.00742
lfingers 7.12502
lthumb 38.5294 27.6606
rfemur -2.40816 4.75624 19.3965
rtibia 53.1497
rfoot 10.2829 2.79873
rtoes 0.930115
lfemur -7.86284 -1.52978 -14.0697
ltibia 28.2425
lfoot -16.6825 -2.87546
ltoes -0.963298
1415
root -12.5439 17.6132 14.5161 -2.35646 32.2994 -1.88861
lowerback 10.6242 4.67283 -0.640406
upperback 4.16153 6.19173 0.727842
thorax -1.74177 3.09753 0.367271
lowerneck -7.46453 -8.68284 -9.08788
upperneck 7.8036 -12.3555 16.5485
head 5.20769 -5.50731 5.7016
rclavicle 7.41964e-014 2.48481e-015
rhumerus -55.7649 -29.5418 -59.086
rradius 15.4816
rwrist -346.078
rhand 10.3222 -26.3253
rfingers 7.12502
rthumb 35.4319 -52.7794
lclavicle 7.41964e-014 2.48481e-015
lhumerus -70.9261 32.6354 62.8359
lradius 22.6753
lwrist -6.37262
lhand 17.1584 -3.51546
lfingers 7.12502
lthumb 41.8793 21.1149
rfemur -4.10689 4.32957 17.381
rtibia 55.624
rfoot 12.2355 2.66806
rtoes 5.45485
lfemur -6.75032 -1.53335 -15.8123
ltibia 26.6605
lfoot -16.1428 -2.61922
ltoes -0.434688
1416
root -12.4789 17.6232 14.5743 -1.47173 32.1262 0.0052077
lowerback 10.753 4.55495 -2.23019
upperback 4.32854 5.86649 0.298343
thorax -1.74295 2.92661 0.838088
lowerneck -7.51068 -8.6319 -8.94759
upperneck 8.28804 -12.3176 16.1686
head 5.32146 -5.48563 5.55873
rclavicle 4.79444e-014 -1.54058e-014
rhumerus -56.1622 -29.8421 -58.6647
rradius 15.832
rwrist -348.34
rhand 11.1964 -26.4739
rfingers 7.12502
rthumb 36.2602 -52.726
lclavicle 4.79444e-014 -1.54058e-014
lhumerus -68.766 30.7869 66.9368
lradius 22.6145
lwrist -2.69931
lhand 16.1539 -1.7462
lfingers 7.12502
lthumb 40.9367 23.1903
rfemur -5.53683 3.87832 15.1486
rtibia 57.9475
rfoot 13.9592 2.3848
rtoes 9.17861
lfemur -5.53694 -1.60074 -17.771
ltibia 25.1371
lfoot -15.5515 -2.36356
ltoes -0.565804
1417
root -12.4103 17.6321 14.637 -0.761722 31.9811 1.51698
lowerback 10.6714 4.39012 -3.50719
upperback 4.57382 5.525 -0.00804829
thorax -1.51573 2.74495 1.28877
lowerneck -8.54939 -8.52629 -10.3785
upperneck 9.79421 -12.2643 17.1171
head 6.11423 -5.35258 6.07214
rclavicle 2.24875e-015 7.65321e-015
rhumerus -56.1766 -30.3963 -58.039
rradius 15.5945
rwrist -349.918
rhand 11.8198 -26.1293
rfingers 7.12502
rthumb 36.8502 -52.2323
lclavicle 2.24875e-015 7.65321e-015
lhumerus -67.5211 30.3695 68.8075
lradius 22.5633
lwrist -1.78562
lhand 15.815 -0.42728
lfingers 7.12502
lthumb 40.6182 24.6092
rfemur -6.91066 3.32534 13.2818
rtibia 60.1067
rfoot 15.3142 2.4116
rtoes 9.29552
lfemur -4.30588 -1.61226 -19.3591
ltibia 23.6357
lfoot -15.0351 -2.18769
ltoes -0.378687
1418
root -12.3472 17.6435 14.7024 -0.217426 31.892 2.31945
lowerback 10.3574 4.18902 -4.29509
upperback 4.79323 5.20537 -0.0801731
thorax -1.15861 2.57112 1.72368
lowerneck -8.47136 -8.47399 -10.1104
upperneck 9.77237 -12.1214 16.324
head 5.99909 -5.3284 5.78614
rclavicle 7.95884e-014 -2.23633e-014
rhumerus -56.1856 -31.2928 -56.9064
rradius 15.5952
rwrist -351.813
rhand 11.7414 -25.8409
rfingers 7.12502
rthumb 36.776 -51.963
lclavicle 7.95884e-014 -2.23633e-014
lhumerus -65.5368 29.0086 72.1735
lradius 22.677
lwrist -0.0782869
lhand 16.6745 -0.64232
lfingers 7.12502
lthumb 41.4254 24.1373
rfemur -8.46208 2.85243 12.233
rtibia 62.1205
rfoot 15.9367 2.15449
rtoes 11.2093
lfemur -3.37948 -1.5707 -20.2312
ltibia 22.2485
lfoot -14.6002 -2.12726
ltoes 0.663423
1419
root -12.2871 17.6394 14.7755 -0.242411 31.2106 2.90591
lowerback 10.6356 4.25478 -4.90564
upperback 4.88574 5.22085 -0.150119
thorax -1.25715 2.57272 1.97021
lowerneck -10.1854 -8.02561 -11.2181
upperneck 12.1883 -11.6816 17.2834
head 7.12844 -4.936 6.31577
rclavicle 1.20016e-014 8.74653e-015
rhumerus -56.6168 -31.6185 -56.234
rradius 16.1774
rwrist -353.937
rhand 11.5948 -26.3195
rfingers 7.12502
rthumb 36.6373 -52.4768
lclavicle 1.20016e-014 8.74653e-015
lhumerus -64.5889 27.8903 73.8939
lradius 22.7771
lwrist -0.364876
lhand 18.5528 -1.53641
lfingers 7.12502
lthumb 43.1846 22.644
rfemur -9.58423 3.0386 11.5347
rtibia 63.981
rfoot 15.6255 1.55308
rtoes 10.794
lfemur -1.98921 -1.05466 -20.8645
ltibia 21.1091
lfoot -14.4122 -1.88
ltoes 1.55942
